# xmcd CD database file
#
# Track frame offsets:
#	150
#	17121
#	31523
#	49477
#	64205
#	74474
#	89329
#	102205
#	114027
#	128355
#
# Disc length: 1891 seconds
#
# Revision: 0
# Processed by: cddbd v1.5.2PL0 Copyright (c) Steve Scherf et al.
# Submitted via: CDex 1.70beta2
#
DISCID=7907610a
DTITLE=Don Williams - Live - 16 Top Ten Hits - Disc 2
DYEAR=2008
DGENRE=Country
TTITLE0=I Believe In You
TTITLE1=Lay Down Beside Me
TTITLE2=Good Ole Boys Like Me
TTITLE3=Lord, I Hope The Day Is Good
TTITLE4=Stay Young
TTITLE5=Back In My Younger Days
TTITLE6=True Love
TTITLE7=We're All The Way
TTITLE8=It's Good To See You
TTITLE9=She's In Love With A Rodeo Man
EXTD=YEAR: 2008
EXTT0=
EXTT1=
EXTT2=
EXTT3=
EXTT4=
EXTT5=
EXTT6=
EXTT7=
EXTT8=
EXTT9=
PLAYORDER=
